<svg xmlns="http://www.w3.org/2000/svg" version="1.1" xmlns:xlink="http://www.w3.org/1999/xlink" xmlns:svgjs="http://svgjs.dev/svgjs" width="1440" height="560" preserveAspectRatio="none" viewBox="0 0 1440 560">
    <g mask="url(&quot;#SvgjsMask1006&quot;)" fill="none">
        <rect width="1440" height="560" x="0" y="0" fill="rgba(255, 255, 255, 1)"></rect>
        <path d="M-90.23 344.93L-90.23 344.93" stroke="rgba(183, 93, 212, 1)" stroke-width="1.5"></path>
        <path d="M-90.23 344.93L93.18 363.3" stroke="rgba(183, 93, 212, 1)" stroke-width="1.5"></path>
        <path d="M-90.23 344.93L-43.8 534.67" stroke="rgba(183, 93, 212, 1)" stroke-width="1.5"></path>
        <path d="M-90.23 344.93L105.43 503.27" stroke="rgba(183, 93, 212, 1)" stroke-width="1.5"></path>
        <path d="M-90.23 344.93L231.99 348.17" stroke="rgba(183, 93, 212, 1)" stroke-width="1.5"></path>
        <path d="M-90.23 344.93L-109.55 687.45" stroke="rgba(183, 93, 212, 1)" stroke-width="1.5"></path>
        <path d="M-90.23 344.93L237.25 533.5" stroke="rgba(183, 93, 212, 1)" stroke-width="1.5"></path>
        <path d="M-43.8 534.67L-43.8 534.67" stroke="rgba(183, 93, 212, 1)" stroke-width="1.5"></path>
        <path d="M-43.8 534.67L105.43 503.27" stroke="rgba(183, 93, 212, 1)" stroke-width="1.5"></path>
        <path d="M-43.8 534.67L-109.55 687.45" stroke="rgba(183, 93, 212, 1)" stroke-width="1.5"></path>
        <path d="M-109.55 687.45L-109.55 687.45" stroke="rgba(183, 93, 212, 1)" stroke-width="1.5"></path>
        <path d="M-109.55 687.45L105.43 503.27" stroke="rgba(183, 93, 212, 1)" stroke-width="1.5"></path>
        <path d="M-109.55 687.45L195.57 688.29" stroke="rgba(183, 93, 212, 1)" stroke-width="1.5"></path>
        <path d="M93.18 363.3L93.18 363.3" stroke="rgba(183, 93, 212, 1)" stroke-width="1.5"></path>
        <path d="M93.18 363.3L231.99 348.17" stroke="rgba(183, 93, 212, 1)" stroke-width="1.5"></path>
        <path d="M93.18 363.3L105.43 503.27" stroke="rgba(183, 93, 212, 1)" stroke-width="1.5"></path>
        <path d="M105.43 503.27L105.43 503.27" stroke="rgba(183, 93, 212, 1)" stroke-width="1.5"></path>
        <path d="M105.43 503.27L237.25 533.5" stroke="rgba(183, 93, 212, 1)" stroke-width="1.5"></path>
        <path d="M105.43 503.27L231.99 348.17" stroke="rgba(183, 93, 212, 1)" stroke-width="1.5"></path>
        <path d="M231.99 348.17L231.99 348.17" stroke="rgba(183, 93, 212, 1)" stroke-width="1.5"></path>
        <path d="M231.99 348.17L340.51 351.2" stroke="rgba(183, 93, 212, 1)" stroke-width="1.5"></path>
        <path d="M231.99 348.17L237.25 533.5" stroke="rgba(183, 93, 212, 1)" stroke-width="1.5"></path>
        <path d="M231.99 348.17L392.64 550.68" stroke="rgba(183, 93, 212, 1)" stroke-width="1.5"></path>
        <path d="M237.25 533.5L237.25 533.5" stroke="rgba(183, 93, 212, 1)" stroke-width="1.5"></path>
        <path d="M237.25 533.5L392.64 550.68" stroke="rgba(183, 93, 212, 1)" stroke-width="1.5"></path>
        <path d="M237.25 533.5L195.57 688.29" stroke="rgba(183, 93, 212, 1)" stroke-width="1.5"></path>
        <path d="M195.57 688.29L195.57 688.29" stroke="rgba(183, 93, 212, 1)" stroke-width="1.5"></path>
        <path d="M195.57 688.29L347.5 706.14" stroke="rgba(183, 93, 212, 1)" stroke-width="1.5"></path>
        <path d="M340.51 351.2L340.51 351.2" stroke="rgba(183, 93, 212, 1)" stroke-width="1.5"></path>
        <path d="M340.51 351.2L497.16 351.09" stroke="rgba(183, 93, 212, 1)" stroke-width="1.5"></path>
        <path d="M340.51 351.2L392.64 550.68" stroke="rgba(183, 93, 212, 1)" stroke-width="1.5"></path>
        <path d="M392.64 550.68L392.64 550.68" stroke="rgba(183, 93, 212, 1)" stroke-width="1.5"></path>
        <path d="M392.64 550.68L541.24 517.64" stroke="rgba(183, 93, 212, 1)" stroke-width="1.5"></path>
        <path d="M392.64 550.68L347.5 706.14" stroke="rgba(183, 93, 212, 1)" stroke-width="1.5"></path>
        <path d="M347.5 706.14L347.5 706.14" stroke="rgba(183, 93, 212, 1)" stroke-width="1.5"></path>
        <path d="M347.5 706.14L528.22 660.37" stroke="rgba(183, 93, 212, 1)" stroke-width="1.5"></path>
        <path d="M347.5 706.14L237.25 533.5" stroke="rgba(183, 93, 212, 1)" stroke-width="1.5"></path>
        <path d="M497.16 351.09L497.16 351.09" stroke="rgba(183, 93, 212, 1)" stroke-width="1.5"></path>
        <path d="M497.16 351.09L541.24 517.64" stroke="rgba(183, 93, 212, 1)" stroke-width="1.5"></path>
        <path d="M497.16 351.09L655.3 235.55" stroke="rgba(183, 93, 212, 1)" stroke-width="1.5"></path>
        <path d="M497.16 351.09L392.64 550.68" stroke="rgba(183, 93, 212, 1)" stroke-width="1.5"></path>
        <path d="M541.24 517.64L541.24 517.64" stroke="rgba(183, 93, 212, 1)" stroke-width="1.5"></path>
        <path d="M541.24 517.64L528.22 660.37" stroke="rgba(183, 93, 212, 1)" stroke-width="1.5"></path>
        <path d="M541.24 517.64L711.12 547.57" stroke="rgba(183, 93, 212, 1)" stroke-width="1.5"></path>
        <path d="M541.24 517.64L706.29 698.63" stroke="rgba(183, 93, 212, 1)" stroke-width="1.5"></path>
        <path d="M541.24 517.64L340.51 351.2" stroke="rgba(183, 93, 212, 1)" stroke-width="1.5"></path>
        <path d="M528.22 660.37L528.22 660.37" stroke="rgba(183, 93, 212, 1)" stroke-width="1.5"></path>
        <path d="M528.22 660.37L392.64 550.68" stroke="rgba(183, 93, 212, 1)" stroke-width="1.5"></path>
        <path d="M528.22 660.37L706.29 698.63" stroke="rgba(183, 93, 212, 1)" stroke-width="1.5"></path>
        <path d="M528.22 660.37L711.12 547.57" stroke="rgba(183, 93, 212, 1)" stroke-width="1.5"></path>
        <path d="M655.3 235.55L655.3 235.55" stroke="rgba(183, 93, 212, 1)" stroke-width="1.5"></path>
        <path d="M655.3 235.55L841.02 204.32" stroke="rgba(183, 93, 212, 1)" stroke-width="1.5"></path>
        <path d="M711.12 547.57L711.12 547.57" stroke="rgba(183, 93, 212, 1)" stroke-width="1.5"></path>
        <path d="M711.12 547.57L861.65 552.09" stroke="rgba(183, 93, 212, 1)" stroke-width="1.5"></path>
        <path d="M711.12 547.57L706.29 698.63" stroke="rgba(183, 93, 212, 1)" stroke-width="1.5"></path>
        <path d="M706.29 698.63L706.29 698.63" stroke="rgba(183, 93, 212, 1)" stroke-width="1.5"></path>
        <path d="M706.29 698.63L793.67 709.28" stroke="rgba(183, 93, 212, 1)" stroke-width="1.5"></path>
        <path d="M706.29 698.63L861.65 552.09" stroke="rgba(183, 93, 212, 1)" stroke-width="1.5"></path>
        <path d="M841.02 204.32L841.02 204.32" stroke="rgba(183, 93, 212, 1)" stroke-width="1.5"></path>
        <path d="M841.02 204.32L938.02 227.71" stroke="rgba(183, 93, 212, 1)" stroke-width="1.5"></path>
        <path d="M841.02 204.32L811.05 380.24" stroke="rgba(183, 93, 212, 1)" stroke-width="1.5"></path>
        <path d="M841.02 204.32L969.22 55.57" stroke="rgba(183, 93, 212, 1)" stroke-width="1.5"></path>
        <path d="M841.02 204.32L1011.46 389.57" stroke="rgba(183, 93, 212, 1)" stroke-width="1.5"></path>
        <path d="M841.02 204.32L1103.9 218.17" stroke="rgba(183, 93, 212, 1)" stroke-width="1.5"></path>
        <path d="M811.05 380.24L811.05 380.24" stroke="rgba(183, 93, 212, 1)" stroke-width="1.5"></path>
        <path d="M811.05 380.24L861.65 552.09" stroke="rgba(183, 93, 212, 1)" stroke-width="1.5"></path>
        <path d="M811.05 380.24L711.12 547.57" stroke="rgba(183, 93, 212, 1)" stroke-width="1.5"></path>
        <path d="M861.65 552.09L861.65 552.09" stroke="rgba(183, 93, 212, 1)" stroke-width="1.5"></path>
        <path d="M861.65 552.09L966.44 499.99" stroke="rgba(183, 93, 212, 1)" stroke-width="1.5"></path>
        <path d="M793.67 709.28L793.67 709.28" stroke="rgba(183, 93, 212, 1)" stroke-width="1.5"></path>
        <path d="M793.67 709.28L861.65 552.09" stroke="rgba(183, 93, 212, 1)" stroke-width="1.5"></path>
        <path d="M793.67 709.28L711.12 547.57" stroke="rgba(183, 93, 212, 1)" stroke-width="1.5"></path>
        <path d="M1008.91 -107.08L1008.91 -107.08" stroke="rgba(183, 93, 212, 1)" stroke-width="1.5"></path>
        <path d="M1008.91 -107.08L1137.09 -101.37" stroke="rgba(183, 93, 212, 1)" stroke-width="1.5"></path>
        <path d="M1008.91 -107.08L969.22 55.57" stroke="rgba(183, 93, 212, 1)" stroke-width="1.5"></path>
        <path d="M969.22 55.57L969.22 55.57" stroke="rgba(183, 93, 212, 1)" stroke-width="1.5"></path>
        <path d="M969.22 55.57L938.02 227.71" stroke="rgba(183, 93, 212, 1)" stroke-width="1.5"></path>
        <path d="M969.22 55.57L1145.11 39.82" stroke="rgba(183, 93, 212, 1)" stroke-width="1.5"></path>
        <path d="M969.22 55.57L1103.9 218.17" stroke="rgba(183, 93, 212, 1)" stroke-width="1.5"></path>
        <path d="M969.22 55.57L1137.09 -101.37" stroke="rgba(183, 93, 212, 1)" stroke-width="1.5"></path>
        <path d="M938.02 227.71L938.02 227.71" stroke="rgba(183, 93, 212, 1)" stroke-width="1.5"></path>
        <path d="M938.02 227.71L1103.9 218.17" stroke="rgba(183, 93, 212, 1)" stroke-width="1.5"></path>
        <path d="M1011.46 389.57L1011.46 389.57" stroke="rgba(183, 93, 212, 1)" stroke-width="1.5"></path>
        <path d="M1011.46 389.57L1106.23 383.33" stroke="rgba(183, 93, 212, 1)" stroke-width="1.5"></path>
        <path d="M1011.46 389.57L966.44 499.99" stroke="rgba(183, 93, 212, 1)" stroke-width="1.5"></path>
        <path d="M1011.46 389.57L938.02 227.71" stroke="rgba(183, 93, 212, 1)" stroke-width="1.5"></path>
        <path d="M1011.46 389.57L1115.65 540.74" stroke="rgba(183, 93, 212, 1)" stroke-width="1.5"></path>
        <path d="M1011.46 389.57L1103.9 218.17" stroke="rgba(183, 93, 212, 1)" stroke-width="1.5"></path>
        <path d="M966.44 499.99L966.44 499.99" stroke="rgba(183, 93, 212, 1)" stroke-width="1.5"></path>
        <path d="M966.44 499.99L1115.65 540.74" stroke="rgba(183, 93, 212, 1)" stroke-width="1.5"></path>
        <path d="M966.44 499.99L1106.23 383.33" stroke="rgba(183, 93, 212, 1)" stroke-width="1.5"></path>
        <path d="M966.44 499.99L811.05 380.24" stroke="rgba(183, 93, 212, 1)" stroke-width="1.5"></path>
        <path d="M966.44 499.99L1138.15 639.14" stroke="rgba(183, 93, 212, 1)" stroke-width="1.5"></path>
        <path d="M1137.09 -101.37L1137.09 -101.37" stroke="rgba(183, 93, 212, 1)" stroke-width="1.5"></path>
        <path d="M1137.09 -101.37L1145.11 39.82" stroke="rgba(183, 93, 212, 1)" stroke-width="1.5"></path>
        <path d="M1137.09 -101.37L1298.04 -106.22" stroke="rgba(183, 93, 212, 1)" stroke-width="1.5"></path>
        <path d="M1137.09 -101.37L1271.68 78.35" stroke="rgba(183, 93, 212, 1)" stroke-width="1.5"></path>
        <path d="M1145.11 39.82L1145.11 39.82" stroke="rgba(183, 93, 212, 1)" stroke-width="1.5"></path>
        <path d="M1145.11 39.82L1271.68 78.35" stroke="rgba(183, 93, 212, 1)" stroke-width="1.5"></path>
        <path d="M1145.11 39.82L1103.9 218.17" stroke="rgba(183, 93, 212, 1)" stroke-width="1.5"></path>
        <path d="M1145.11 39.82L1008.91 -107.08" stroke="rgba(183, 93, 212, 1)" stroke-width="1.5"></path>
        <path d="M1103.9 218.17L1103.9 218.17" stroke="rgba(183, 93, 212, 1)" stroke-width="1.5"></path>
        <path d="M1103.9 218.17L1251.87 253.74" stroke="rgba(183, 93, 212, 1)" stroke-width="1.5"></path>
        <path d="M1103.9 218.17L1106.23 383.33" stroke="rgba(183, 93, 212, 1)" stroke-width="1.5"></path>
        <path d="M1106.23 383.33L1106.23 383.33" stroke="rgba(183, 93, 212, 1)" stroke-width="1.5"></path>
        <path d="M1106.23 383.33L1115.65 540.74" stroke="rgba(183, 93, 212, 1)" stroke-width="1.5"></path>
        <path d="M1106.23 383.33L1270.65 381.19" stroke="rgba(183, 93, 212, 1)" stroke-width="1.5"></path>
        <path d="M1115.65 540.74L1115.65 540.74" stroke="rgba(183, 93, 212, 1)" stroke-width="1.5"></path>
        <path d="M1115.65 540.74L1138.15 639.14" stroke="rgba(183, 93, 212, 1)" stroke-width="1.5"></path>
        <path d="M1138.15 639.14L1138.15 639.14" stroke="rgba(183, 93, 212, 1)" stroke-width="1.5"></path>
        <path d="M1138.15 639.14L1266 673.69" stroke="rgba(183, 93, 212, 1)" stroke-width="1.5"></path>
        <path d="M1138.15 639.14L1299.87 535.07" stroke="rgba(183, 93, 212, 1)" stroke-width="1.5"></path>
        <path d="M1138.15 639.14L1106.23 383.33" stroke="rgba(183, 93, 212, 1)" stroke-width="1.5"></path>
        <path d="M1138.15 639.14L1011.46 389.57" stroke="rgba(183, 93, 212, 1)" stroke-width="1.5"></path>
        <path d="M1298.04 -106.22L1298.04 -106.22" stroke="rgba(183, 93, 212, 1)" stroke-width="1.5"></path>
        <path d="M1298.04 -106.22L1410.34 -45.86" stroke="rgba(183, 93, 212, 1)" stroke-width="1.5"></path>
        <path d="M1298.04 -106.22L1271.68 78.35" stroke="rgba(183, 93, 212, 1)" stroke-width="1.5"></path>
        <path d="M1298.04 -106.22L1145.11 39.82" stroke="rgba(183, 93, 212, 1)" stroke-width="1.5"></path>
        <path d="M1271.68 78.35L1271.68 78.35" stroke="rgba(183, 93, 212, 1)" stroke-width="1.5"></path>
        <path d="M1271.68 78.35L1251.87 253.74" stroke="rgba(183, 93, 212, 1)" stroke-width="1.5"></path>
        <path d="M1271.68 78.35L1410.34 -45.86" stroke="rgba(183, 93, 212, 1)" stroke-width="1.5"></path>
        <path d="M1251.87 253.74L1251.87 253.74" stroke="rgba(183, 93, 212, 1)" stroke-width="1.5"></path>
        <path d="M1251.87 253.74L1270.65 381.19" stroke="rgba(183, 93, 212, 1)" stroke-width="1.5"></path>
        <path d="M1251.87 253.74L1106.23 383.33" stroke="rgba(183, 93, 212, 1)" stroke-width="1.5"></path>
        <path d="M1251.87 253.74L1449.44 220.39" stroke="rgba(183, 93, 212, 1)" stroke-width="1.5"></path>
        <path d="M1251.87 253.74L1437.95 395.49" stroke="rgba(183, 93, 212, 1)" stroke-width="1.5"></path>
        <path d="M1270.65 381.19L1270.65 381.19" stroke="rgba(183, 93, 212, 1)" stroke-width="1.5"></path>
        <path d="M1270.65 381.19L1299.87 535.07" stroke="rgba(183, 93, 212, 1)" stroke-width="1.5"></path>
        <path d="M1270.65 381.19L1437.95 395.49" stroke="rgba(183, 93, 212, 1)" stroke-width="1.5"></path>
        <path d="M1299.87 535.07L1299.87 535.07" stroke="rgba(183, 93, 212, 1)" stroke-width="1.5"></path>
        <path d="M1299.87 535.07L1434 527.12" stroke="rgba(183, 93, 212, 1)" stroke-width="1.5"></path>
        <path d="M1299.87 535.07L1266 673.69" stroke="rgba(183, 93, 212, 1)" stroke-width="1.5"></path>
        <path d="M1299.87 535.07L1115.65 540.74" stroke="rgba(183, 93, 212, 1)" stroke-width="1.5"></path>
        <path d="M1299.87 535.07L1426.29 678.62" stroke="rgba(183, 93, 212, 1)" stroke-width="1.5"></path>
        <path d="M1266 673.69L1266 673.69" stroke="rgba(183, 93, 212, 1)" stroke-width="1.5"></path>
        <path d="M1266 673.69L1426.29 678.62" stroke="rgba(183, 93, 212, 1)" stroke-width="1.5"></path>
        <path d="M1266 673.69L1115.65 540.74" stroke="rgba(183, 93, 212, 1)" stroke-width="1.5"></path>
        <path d="M1410.34 -45.86L1410.34 -45.86" stroke="rgba(183, 93, 212, 1)" stroke-width="1.5"></path>
        <path d="M1410.34 -45.86L1462.15 105.82" stroke="rgba(183, 93, 212, 1)" stroke-width="1.5"></path>
        <path d="M1410.34 -45.86L1548.28 65.19" stroke="rgba(183, 93, 212, 1)" stroke-width="1.5"></path>
        <path d="M1410.34 -45.86L1597.35 -111.58" stroke="rgba(183, 93, 212, 1)" stroke-width="1.5"></path>
        <path d="M1462.15 105.82L1462.15 105.82" stroke="rgba(183, 93, 212, 1)" stroke-width="1.5"></path>
        <path d="M1462.15 105.82L1548.28 65.19" stroke="rgba(183, 93, 212, 1)" stroke-width="1.5"></path>
        <path d="M1462.15 105.82L1449.44 220.39" stroke="rgba(183, 93, 212, 1)" stroke-width="1.5"></path>
        <path d="M1462.15 105.82L1544.86 207.67" stroke="rgba(183, 93, 212, 1)" stroke-width="1.5"></path>
        <path d="M1449.44 220.39L1449.44 220.39" stroke="rgba(183, 93, 212, 1)" stroke-width="1.5"></path>
        <path d="M1449.44 220.39L1544.86 207.67" stroke="rgba(183, 93, 212, 1)" stroke-width="1.5"></path>
        <path d="M1437.95 395.49L1437.95 395.49" stroke="rgba(183, 93, 212, 1)" stroke-width="1.5"></path>
        <path d="M1437.95 395.49L1557.52 403.78" stroke="rgba(183, 93, 212, 1)" stroke-width="1.5"></path>
        <path d="M1437.95 395.49L1434 527.12" stroke="rgba(183, 93, 212, 1)" stroke-width="1.5"></path>
        <path d="M1434 527.12L1434 527.12" stroke="rgba(183, 93, 212, 1)" stroke-width="1.5"></path>
        <path d="M1434 527.12L1576.84 544.53" stroke="rgba(183, 93, 212, 1)" stroke-width="1.5"></path>
        <path d="M1434 527.12L1426.29 678.62" stroke="rgba(183, 93, 212, 1)" stroke-width="1.5"></path>
        <path d="M1434 527.12L1557.52 403.78" stroke="rgba(183, 93, 212, 1)" stroke-width="1.5"></path>
        <path d="M1434 527.12L1558.1 699.89" stroke="rgba(183, 93, 212, 1)" stroke-width="1.5"></path>
        <path d="M1426.29 678.62L1426.29 678.62" stroke="rgba(183, 93, 212, 1)" stroke-width="1.5"></path>
        <path d="M1426.29 678.62L1558.1 699.89" stroke="rgba(183, 93, 212, 1)" stroke-width="1.5"></path>
        <path d="M1426.29 678.62L1576.84 544.53" stroke="rgba(183, 93, 212, 1)" stroke-width="1.5"></path>
        <path d="M1426.29 678.62L1437.95 395.49" stroke="rgba(183, 93, 212, 1)" stroke-width="1.5"></path>
        <path d="M1597.35 -111.58L1597.35 -111.58" stroke="rgba(183, 93, 212, 1)" stroke-width="1.5"></path>
        <path d="M1597.35 -111.58L1548.28 65.19" stroke="rgba(183, 93, 212, 1)" stroke-width="1.5"></path>
        <path d="M1597.35 -111.58L1462.15 105.82" stroke="rgba(183, 93, 212, 1)" stroke-width="1.5"></path>
        <path d="M1597.35 -111.58L1298.04 -106.22" stroke="rgba(183, 93, 212, 1)" stroke-width="1.5"></path>
        <path d="M1548.28 65.19L1548.28 65.19" stroke="rgba(183, 93, 212, 1)" stroke-width="1.5"></path>
        <path d="M1548.28 65.19L1544.86 207.67" stroke="rgba(183, 93, 212, 1)" stroke-width="1.5"></path>
        <path d="M1548.28 65.19L1449.44 220.39" stroke="rgba(183, 93, 212, 1)" stroke-width="1.5"></path>
        <path d="M1544.86 207.67L1544.86 207.67" stroke="rgba(183, 93, 212, 1)" stroke-width="1.5"></path>
        <path d="M1557.52 403.78L1557.52 403.78" stroke="rgba(183, 93, 212, 1)" stroke-width="1.5"></path>
        <path d="M1557.52 403.78L1576.84 544.53" stroke="rgba(183, 93, 212, 1)" stroke-width="1.5"></path>
        <path d="M1576.84 544.53L1576.84 544.53" stroke="rgba(183, 93, 212, 1)" stroke-width="1.5"></path>
        <path d="M1558.1 699.89L1558.1 699.89" stroke="rgba(183, 93, 212, 1)" stroke-width="1.5"></path>
        <path d="M1558.1 699.89L1576.84 544.53" stroke="rgba(183, 93, 212, 1)" stroke-width="1.5"></path>
        <circle r="5" cx="-90.23" cy="344.93" fill="rgba(183, 93, 212, 1)"></circle>
        <circle r="5" cx="-43.8" cy="534.67" fill="rgba(183, 93, 212, 1)"></circle>
        <circle r="5" cx="-109.55" cy="687.45" fill="rgba(183, 93, 212, 1)"></circle>
        <circle r="5" cx="93.18" cy="363.3" fill="rgba(183, 93, 212, 1)"></circle>
        <circle r="5" cx="105.43" cy="503.27" fill="rgba(183, 93, 212, 1)"></circle>
        <circle r="5" cx="231.99" cy="348.17" fill="rgba(183, 93, 212, 1)"></circle>
        <circle r="5" cx="237.25" cy="533.5" fill="rgba(183, 93, 212, 1)"></circle>
        <circle r="5" cx="195.57" cy="688.29" fill="rgba(183, 93, 212, 1)"></circle>
        <circle r="5" cx="340.51" cy="351.2" fill="rgba(183, 93, 212, 1)"></circle>
        <circle r="5" cx="392.64" cy="550.68" fill="rgba(183, 93, 212, 1)"></circle>
        <circle r="5" cx="347.5" cy="706.14" fill="rgba(183, 93, 212, 1)"></circle>
        <circle r="5" cx="497.16" cy="351.09" fill="rgba(183, 93, 212, 1)"></circle>
        <circle r="5" cx="541.24" cy="517.64" fill="rgba(183, 93, 212, 1)"></circle>
        <circle r="5" cx="528.22" cy="660.37" fill="rgba(183, 93, 212, 1)"></circle>
        <circle r="5" cx="655.3" cy="235.55" fill="rgba(183, 93, 212, 1)"></circle>
        <circle r="5" cx="711.12" cy="547.57" fill="rgba(183, 93, 212, 1)"></circle>
        <circle r="5" cx="706.29" cy="698.63" fill="rgba(183, 93, 212, 1)"></circle>
        <circle r="5" cx="841.02" cy="204.32" fill="rgba(183, 93, 212, 1)"></circle>
        <circle r="5" cx="811.05" cy="380.24" fill="rgba(183, 93, 212, 1)"></circle>
        <circle r="5" cx="861.65" cy="552.09" fill="rgba(183, 93, 212, 1)"></circle>
        <circle r="5" cx="793.67" cy="709.28" fill="rgba(183, 93, 212, 1)"></circle>
        <circle r="5" cx="1008.91" cy="-107.08" fill="rgba(183, 93, 212, 1)"></circle>
        <circle r="5" cx="969.22" cy="55.57" fill="rgba(183, 93, 212, 1)"></circle>
        <circle r="5" cx="938.02" cy="227.71" fill="rgba(183, 93, 212, 1)"></circle>
        <circle r="5" cx="1011.46" cy="389.57" fill="rgba(183, 93, 212, 1)"></circle>
        <circle r="5" cx="966.44" cy="499.99" fill="rgba(183, 93, 212, 1)"></circle>
        <circle r="5" cx="1137.09" cy="-101.37" fill="rgba(183, 93, 212, 1)"></circle>
        <circle r="5" cx="1145.11" cy="39.82" fill="rgba(183, 93, 212, 1)"></circle>
        <circle r="5" cx="1103.9" cy="218.17" fill="rgba(183, 93, 212, 1)"></circle>
        <circle r="5" cx="1106.23" cy="383.33" fill="rgba(183, 93, 212, 1)"></circle>
        <circle r="5" cx="1115.65" cy="540.74" fill="rgba(183, 93, 212, 1)"></circle>
        <circle r="5" cx="1138.15" cy="639.14" fill="rgba(183, 93, 212, 1)"></circle>
        <circle r="5" cx="1298.04" cy="-106.22" fill="rgba(183, 93, 212, 1)"></circle>
        <circle r="5" cx="1271.68" cy="78.35" fill="rgba(183, 93, 212, 1)"></circle>
        <circle r="5" cx="1251.87" cy="253.74" fill="rgba(183, 93, 212, 1)"></circle>
        <circle r="5" cx="1270.65" cy="381.19" fill="rgba(183, 93, 212, 1)"></circle>
        <circle r="5" cx="1299.87" cy="535.07" fill="rgba(183, 93, 212, 1)"></circle>
        <circle r="5" cx="1266" cy="673.69" fill="rgba(183, 93, 212, 1)"></circle>
        <circle r="5" cx="1410.34" cy="-45.86" fill="rgba(183, 93, 212, 1)"></circle>
        <circle r="5" cx="1462.15" cy="105.82" fill="rgba(183, 93, 212, 1)"></circle>
        <circle r="5" cx="1449.44" cy="220.39" fill="rgba(183, 93, 212, 1)"></circle>
        <circle r="5" cx="1437.95" cy="395.49" fill="rgba(183, 93, 212, 1)"></circle>
        <circle r="5" cx="1434" cy="527.12" fill="rgba(183, 93, 212, 1)"></circle>
        <circle r="5" cx="1426.29" cy="678.62" fill="rgba(183, 93, 212, 1)"></circle>
        <circle r="5" cx="1597.35" cy="-111.58" fill="rgba(183, 93, 212, 1)"></circle>
        <circle r="5" cx="1548.28" cy="65.19" fill="rgba(183, 93, 212, 1)"></circle>
        <circle r="5" cx="1544.86" cy="207.67" fill="rgba(183, 93, 212, 1)"></circle>
        <circle r="5" cx="1557.52" cy="403.78" fill="rgba(183, 93, 212, 1)"></circle>
        <circle r="5" cx="1576.84" cy="544.53" fill="rgba(183, 93, 212, 1)"></circle>
        <circle r="5" cx="1558.1" cy="699.89" fill="rgba(183, 93, 212, 1)"></circle>
        <path d="M-63.48 696.16L-63.48 696.16" stroke="hsl(264.9, 68.9%, 60.7%)" stroke-width="1.5"></path>
        <path d="M-63.48 696.16L72.93 711.25" stroke="hsl(264.9, 68.9%, 60.7%)" stroke-width="1.5"></path>
        <path d="M-63.48 696.16L48.69 558.54" stroke="hsl(264.9, 68.9%, 60.7%)" stroke-width="1.5"></path>
        <path d="M-63.48 696.16L-102.34 518.41" stroke="hsl(264.9, 68.9%, 60.7%)" stroke-width="1.5"></path>
        <path d="M-63.48 696.16L236.6 706.7" stroke="hsl(264.9, 68.9%, 60.7%)" stroke-width="1.5"></path>
        <path d="M48.69 558.54L48.69 558.54" stroke="hsl(264.9, 68.9%, 60.7%)" stroke-width="1.5"></path>
        <path d="M48.69 558.54L72.93 711.25" stroke="hsl(264.9, 68.9%, 60.7%)" stroke-width="1.5"></path>
        <path d="M48.69 558.54L-102.34 518.41" stroke="hsl(264.9, 68.9%, 60.7%)" stroke-width="1.5"></path>
        <path d="M48.69 558.54L224.65 531.08" stroke="hsl(264.9, 68.9%, 60.7%)" stroke-width="1.5"></path>
        <path d="M48.69 558.54L236.6 706.7" stroke="hsl(264.9, 68.9%, 60.7%)" stroke-width="1.5"></path>
        <path d="M48.69 558.54L379.75 528.7" stroke="hsl(264.9, 68.9%, 60.7%)" stroke-width="1.5"></path>
        <path d="M379.75 528.7L379.75 528.7" stroke="hsl(264.9, 68.9%, 60.7%)" stroke-width="1.5"></path>
        <path d="M379.75 528.7L405.83 639.32" stroke="hsl(264.9, 68.9%, 60.7%)" stroke-width="1.5"></path>
        <path d="M379.75 528.7L224.65 531.08" stroke="hsl(264.9, 68.9%, 60.7%)" stroke-width="1.5"></path>
        <path d="M379.75 528.7L533.55 556.64" stroke="hsl(264.9, 68.9%, 60.7%)" stroke-width="1.5"></path>
        <path d="M379.75 528.7L548.42 645.2" stroke="hsl(264.9, 68.9%, 60.7%)" stroke-width="1.5"></path>
        <path d="M405.83 639.32L405.83 639.32" stroke="hsl(264.9, 68.9%, 60.7%)" stroke-width="1.5"></path>
        <path d="M405.83 639.32L548.42 645.2" stroke="hsl(264.9, 68.9%, 60.7%)" stroke-width="1.5"></path>
        <path d="M405.83 639.32L533.55 556.64" stroke="hsl(264.9, 68.9%, 60.7%)" stroke-width="1.5"></path>
        <path d="M405.83 639.32L236.6 706.7" stroke="hsl(264.9, 68.9%, 60.7%)" stroke-width="1.5"></path>
        <path d="M405.83 639.32L224.65 531.08" stroke="hsl(264.9, 68.9%, 60.7%)" stroke-width="1.5"></path>
        <path d="M405.83 639.32L682.28 682.18" stroke="hsl(264.9, 68.9%, 60.7%)" stroke-width="1.5"></path>
        <path d="M676.64 385.06L676.64 385.06" stroke="hsl(264.9, 68.9%, 60.7%)" stroke-width="1.5"></path>
        <path d="M676.64 385.06L690.3 512.3" stroke="hsl(264.9, 68.9%, 60.7%)" stroke-width="1.5"></path>
        <path d="M676.64 385.06L816.89 401.75" stroke="hsl(264.9, 68.9%, 60.7%)" stroke-width="1.5"></path>
        <path d="M676.64 385.06L533.55 556.64" stroke="hsl(264.9, 68.9%, 60.7%)" stroke-width="1.5"></path>
        <path d="M676.64 385.06L548.42 645.2" stroke="hsl(264.9, 68.9%, 60.7%)" stroke-width="1.5"></path>
        <path d="M676.64 385.06L682.28 682.18" stroke="hsl(264.9, 68.9%, 60.7%)" stroke-width="1.5"></path>
        <path d="M676.64 385.06L982.92 367.42" stroke="hsl(264.9, 68.9%, 60.7%)" stroke-width="1.5"></path>
        <path d="M682.28 682.18L682.28 682.18" stroke="hsl(264.9, 68.9%, 60.7%)" stroke-width="1.5"></path>
        <path d="M682.28 682.18L548.42 645.2" stroke="hsl(264.9, 68.9%, 60.7%)" stroke-width="1.5"></path>
        <path d="M682.28 682.18L690.3 512.3" stroke="hsl(264.9, 68.9%, 60.7%)" stroke-width="1.5"></path>
        <path d="M682.28 682.18L856.25 673.44" stroke="hsl(264.9, 68.9%, 60.7%)" stroke-width="1.5"></path>
        <path d="M682.28 682.18L533.55 556.64" stroke="hsl(264.9, 68.9%, 60.7%)" stroke-width="1.5"></path>
        <path d="M856.25 673.44L856.25 673.44" stroke="hsl(264.9, 68.9%, 60.7%)" stroke-width="1.5"></path>
        <path d="M856.25 673.44L991.07 547.41" stroke="hsl(264.9, 68.9%, 60.7%)" stroke-width="1.5"></path>
        <path d="M856.25 673.44L690.3 512.3" stroke="hsl(264.9, 68.9%, 60.7%)" stroke-width="1.5"></path>
        <path d="M856.25 673.44L816.89 401.75" stroke="hsl(264.9, 68.9%, 60.7%)" stroke-width="1.5"></path>
        <path d="M1003.14 225.87L1003.14 225.87" stroke="hsl(264.9, 68.9%, 60.7%)" stroke-width="1.5"></path>
        <path d="M1003.14 225.87L1134.94 188.54" stroke="hsl(264.9, 68.9%, 60.7%)" stroke-width="1.5"></path>
        <path d="M1003.14 225.87L982.92 367.42" stroke="hsl(264.9, 68.9%, 60.7%)" stroke-width="1.5"></path>
        <path d="M1162.05 53.43L1162.05 53.43" stroke="hsl(264.9, 68.9%, 60.7%)" stroke-width="1.5"></path>
        <path d="M1162.05 53.43L1293.51 45.17" stroke="hsl(264.9, 68.9%, 60.7%)" stroke-width="1.5"></path>
        <path d="M1162.05 53.43L1134.94 188.54" stroke="hsl(264.9, 68.9%, 60.7%)" stroke-width="1.5"></path>
        <path d="M1162.05 53.43L1305.58 -43.92" stroke="hsl(264.9, 68.9%, 60.7%)" stroke-width="1.5"></path>
        <path d="M1162.05 53.43L1256.41 246.73" stroke="hsl(264.9, 68.9%, 60.7%)" stroke-width="1.5"></path>
        <path d="M1162.05 53.43L1003.14 225.87" stroke="hsl(264.9, 68.9%, 60.7%)" stroke-width="1.5"></path>
        <path d="M1162.05 53.43L1411.75 92.29" stroke="hsl(264.9, 68.9%, 60.7%)" stroke-width="1.5"></path>
        <path d="M1134.94 188.54L1134.94 188.54" stroke="hsl(264.9, 68.9%, 60.7%)" stroke-width="1.5"></path>
        <path d="M1134.94 188.54L1256.41 246.73" stroke="hsl(264.9, 68.9%, 60.7%)" stroke-width="1.5"></path>
        <path d="M1134.94 188.54L1130.52 339.47" stroke="hsl(264.9, 68.9%, 60.7%)" stroke-width="1.5"></path>
        <path d="M1134.94 188.54L1293.51 45.17" stroke="hsl(264.9, 68.9%, 60.7%)" stroke-width="1.5"></path>
        <path d="M1134.94 188.54L982.92 367.42" stroke="hsl(264.9, 68.9%, 60.7%)" stroke-width="1.5"></path>
        <path d="M-102.34 518.41L-102.34 518.41" stroke="hsl(264.9, 68.9%, 60.7%)" stroke-width="1.5"></path>
        <path d="M-102.34 518.41L72.93 711.25" stroke="hsl(264.9, 68.9%, 60.7%)" stroke-width="1.5"></path>
        <path d="M-102.34 518.41L224.65 531.08" stroke="hsl(264.9, 68.9%, 60.7%)" stroke-width="1.5"></path>
        <path d="M72.93 711.25L72.93 711.25" stroke="hsl(264.9, 68.9%, 60.7%)" stroke-width="1.5"></path>
        <path d="M224.65 531.08L224.65 531.08" stroke="hsl(264.9, 68.9%, 60.7%)" stroke-width="1.5"></path>
        <path d="M224.65 531.08L236.6 706.7" stroke="hsl(264.9, 68.9%, 60.7%)" stroke-width="1.5"></path>
        <path d="M236.6 706.7L236.6 706.7" stroke="hsl(264.9, 68.9%, 60.7%)" stroke-width="1.5"></path>
        <path d="M236.6 706.7L72.93 711.25" stroke="hsl(264.9, 68.9%, 60.7%)" stroke-width="1.5"></path>
        <path d="M533.55 556.64L533.55 556.64" stroke="hsl(264.9, 68.9%, 60.7%)" stroke-width="1.5"></path>
        <path d="M533.55 556.64L548.42 645.2" stroke="hsl(264.9, 68.9%, 60.7%)" stroke-width="1.5"></path>
        <path d="M533.55 556.64L690.3 512.3" stroke="hsl(264.9, 68.9%, 60.7%)" stroke-width="1.5"></path>
        <path d="M548.42 645.2L548.42 645.2" stroke="hsl(264.9, 68.9%, 60.7%)" stroke-width="1.5"></path>
        <path d="M548.42 645.2L690.3 512.3" stroke="hsl(264.9, 68.9%, 60.7%)" stroke-width="1.5"></path>
        <path d="M690.3 512.3L690.3 512.3" stroke="hsl(264.9, 68.9%, 60.7%)" stroke-width="1.5"></path>
        <path d="M690.3 512.3L816.89 401.75" stroke="hsl(264.9, 68.9%, 60.7%)" stroke-width="1.5"></path>
        <path d="M816.89 401.75L816.89 401.75" stroke="hsl(264.9, 68.9%, 60.7%)" stroke-width="1.5"></path>
        <path d="M816.89 401.75L982.92 367.42" stroke="hsl(264.9, 68.9%, 60.7%)" stroke-width="1.5"></path>
        <path d="M816.89 401.75L991.07 547.41" stroke="hsl(264.9, 68.9%, 60.7%)" stroke-width="1.5"></path>
        <path d="M982.92 367.42L982.92 367.42" stroke="hsl(264.9, 68.9%, 60.7%)" stroke-width="1.5"></path>
        <path d="M982.92 367.42L1130.52 339.47" stroke="hsl(264.9, 68.9%, 60.7%)" stroke-width="1.5"></path>
        <path d="M982.92 367.42L991.07 547.41" stroke="hsl(264.9, 68.9%, 60.7%)" stroke-width="1.5"></path>
        <path d="M991.07 547.41L991.07 547.41" stroke="hsl(264.9, 68.9%, 60.7%)" stroke-width="1.5"></path>
        <path d="M991.07 547.41L1128.51 495.79" stroke="hsl(264.9, 68.9%, 60.7%)" stroke-width="1.5"></path>
        <path d="M991.07 547.41L1139.43 710.61" stroke="hsl(264.9, 68.9%, 60.7%)" stroke-width="1.5"></path>
        <path d="M1130.52 339.47L1130.52 339.47" stroke="hsl(264.9, 68.9%, 60.7%)" stroke-width="1.5"></path>
        <path d="M1130.52 339.47L1128.51 495.79" stroke="hsl(264.9, 68.9%, 60.7%)" stroke-width="1.5"></path>
        <path d="M1130.52 339.47L1256.41 246.73" stroke="hsl(264.9, 68.9%, 60.7%)" stroke-width="1.5"></path>
        <path d="M1130.52 339.47L1003.14 225.87" stroke="hsl(264.9, 68.9%, 60.7%)" stroke-width="1.5"></path>
        <path d="M1128.51 495.79L1128.51 495.79" stroke="hsl(264.9, 68.9%, 60.7%)" stroke-width="1.5"></path>
        <path d="M1128.51 495.79L1263.11 525.18" stroke="hsl(264.9, 68.9%, 60.7%)" stroke-width="1.5"></path>
        <path d="M1128.51 495.79L982.92 367.42" stroke="hsl(264.9, 68.9%, 60.7%)" stroke-width="1.5"></path>
        <path d="M1128.51 495.79L1242.5 668.53" stroke="hsl(264.9, 68.9%, 60.7%)" stroke-width="1.5"></path>
        <path d="M1128.51 495.79L1305.82 386.31" stroke="hsl(264.9, 68.9%, 60.7%)" stroke-width="1.5"></path>
        <path d="M1139.43 710.61L1139.43 710.61" stroke="hsl(264.9, 68.9%, 60.7%)" stroke-width="1.5"></path>
        <path d="M1139.43 710.61L1242.5 668.53" stroke="hsl(264.9, 68.9%, 60.7%)" stroke-width="1.5"></path>
        <path d="M1139.43 710.61L1128.51 495.79" stroke="hsl(264.9, 68.9%, 60.7%)" stroke-width="1.5"></path>
        <path d="M1139.43 710.61L1263.11 525.18" stroke="hsl(264.9, 68.9%, 60.7%)" stroke-width="1.5"></path>
        <path d="M1305.58 -43.92L1305.58 -43.92" stroke="hsl(264.9, 68.9%, 60.7%)" stroke-width="1.5"></path>
        <path d="M1305.58 -43.92L1293.51 45.17" stroke="hsl(264.9, 68.9%, 60.7%)" stroke-width="1.5"></path>
        <path d="M1305.58 -43.92L1387.86 -93.25" stroke="hsl(264.9, 68.9%, 60.7%)" stroke-width="1.5"></path>
        <path d="M1293.51 45.17L1293.51 45.17" stroke="hsl(264.9, 68.9%, 60.7%)" stroke-width="1.5"></path>
        <path d="M1293.51 45.17L1411.75 92.29" stroke="hsl(264.9, 68.9%, 60.7%)" stroke-width="1.5"></path>
        <path d="M1256.41 246.73L1256.41 246.73" stroke="hsl(264.9, 68.9%, 60.7%)" stroke-width="1.5"></path>
        <path d="M1256.41 246.73L1305.82 386.31" stroke="hsl(264.9, 68.9%, 60.7%)" stroke-width="1.5"></path>
        <path d="M1305.82 386.31L1305.82 386.31" stroke="hsl(264.9, 68.9%, 60.7%)" stroke-width="1.5"></path>
        <path d="M1305.82 386.31L1399.58 359.83" stroke="hsl(264.9, 68.9%, 60.7%)" stroke-width="1.5"></path>
        <path d="M1305.82 386.31L1263.11 525.18" stroke="hsl(264.9, 68.9%, 60.7%)" stroke-width="1.5"></path>
        <path d="M1305.82 386.31L1130.52 339.47" stroke="hsl(264.9, 68.9%, 60.7%)" stroke-width="1.5"></path>
        <path d="M1305.82 386.31L1433.29 248.43" stroke="hsl(264.9, 68.9%, 60.7%)" stroke-width="1.5"></path>
        <path d="M1263.11 525.18L1263.11 525.18" stroke="hsl(264.9, 68.9%, 60.7%)" stroke-width="1.5"></path>
        <path d="M1263.11 525.18L1242.5 668.53" stroke="hsl(264.9, 68.9%, 60.7%)" stroke-width="1.5"></path>
        <path d="M1242.5 668.53L1242.5 668.53" stroke="hsl(264.9, 68.9%, 60.7%)" stroke-width="1.5"></path>
        <path d="M1242.5 668.53L1392.77 683.31" stroke="hsl(264.9, 68.9%, 60.7%)" stroke-width="1.5"></path>
        <path d="M1387.86 -93.25L1387.86 -93.25" stroke="hsl(264.9, 68.9%, 60.7%)" stroke-width="1.5"></path>
        <path d="M1387.86 -93.25L1293.51 45.17" stroke="hsl(264.9, 68.9%, 60.7%)" stroke-width="1.5"></path>
        <path d="M1387.86 -93.25L1564.39 -102.53" stroke="hsl(264.9, 68.9%, 60.7%)" stroke-width="1.5"></path>
        <path d="M1387.86 -93.25L1411.75 92.29" stroke="hsl(264.9, 68.9%, 60.7%)" stroke-width="1.5"></path>
        <path d="M1411.75 92.29L1411.75 92.29" stroke="hsl(264.9, 68.9%, 60.7%)" stroke-width="1.5"></path>
        <path d="M1411.75 92.29L1433.29 248.43" stroke="hsl(264.9, 68.9%, 60.7%)" stroke-width="1.5"></path>
        <path d="M1411.75 92.29L1570.12 92.67" stroke="hsl(264.9, 68.9%, 60.7%)" stroke-width="1.5"></path>
        <path d="M1411.75 92.29L1305.58 -43.92" stroke="hsl(264.9, 68.9%, 60.7%)" stroke-width="1.5"></path>
        <path d="M1433.29 248.43L1433.29 248.43" stroke="hsl(264.9, 68.9%, 60.7%)" stroke-width="1.5"></path>
        <path d="M1433.29 248.43L1399.58 359.83" stroke="hsl(264.9, 68.9%, 60.7%)" stroke-width="1.5"></path>
        <path d="M1433.29 248.43L1565.21 236.6" stroke="hsl(264.9, 68.9%, 60.7%)" stroke-width="1.5"></path>
        <path d="M1433.29 248.43L1256.41 246.73" stroke="hsl(264.9, 68.9%, 60.7%)" stroke-width="1.5"></path>
        <path d="M1433.29 248.43L1570.12 92.67" stroke="hsl(264.9, 68.9%, 60.7%)" stroke-width="1.5"></path>
        <path d="M1399.58 359.83L1399.58 359.83" stroke="hsl(264.9, 68.9%, 60.7%)" stroke-width="1.5"></path>
        <path d="M1399.58 359.83L1256.41 246.73" stroke="hsl(264.9, 68.9%, 60.7%)" stroke-width="1.5"></path>
        <path d="M1399.58 359.83L1438.39 548.55" stroke="hsl(264.9, 68.9%, 60.7%)" stroke-width="1.5"></path>
        <path d="M1399.58 359.83L1565.21 236.6" stroke="hsl(264.9, 68.9%, 60.7%)" stroke-width="1.5"></path>
        <path d="M1438.39 548.55L1438.39 548.55" stroke="hsl(264.9, 68.9%, 60.7%)" stroke-width="1.5"></path>
        <path d="M1438.39 548.55L1392.77 683.31" stroke="hsl(264.9, 68.9%, 60.7%)" stroke-width="1.5"></path>
        <path d="M1438.39 548.55L1590.7 545.51" stroke="hsl(264.9, 68.9%, 60.7%)" stroke-width="1.5"></path>
        <path d="M1392.77 683.31L1392.77 683.31" stroke="hsl(264.9, 68.9%, 60.7%)" stroke-width="1.5"></path>
        <path d="M1392.77 683.31L1263.11 525.18" stroke="hsl(264.9, 68.9%, 60.7%)" stroke-width="1.5"></path>
        <path d="M1564.39 -102.53L1564.39 -102.53" stroke="hsl(264.9, 68.9%, 60.7%)" stroke-width="1.5"></path>
        <path d="M1564.39 -102.53L1570.12 92.67" stroke="hsl(264.9, 68.9%, 60.7%)" stroke-width="1.5"></path>
        <path d="M1570.12 92.67L1570.12 92.67" stroke="hsl(264.9, 68.9%, 60.7%)" stroke-width="1.5"></path>
        <path d="M1570.12 92.67L1565.21 236.6" stroke="hsl(264.9, 68.9%, 60.7%)" stroke-width="1.5"></path>
        <path d="M1570.12 92.67L1387.86 -93.25" stroke="hsl(264.9, 68.9%, 60.7%)" stroke-width="1.5"></path>
        <path d="M1565.21 236.6L1565.21 236.6" stroke="hsl(264.9, 68.9%, 60.7%)" stroke-width="1.5"></path>
        <path d="M1590.7 545.51L1590.7 545.51" stroke="hsl(264.9, 68.9%, 60.7%)" stroke-width="1.5"></path>
        <path d="M1590.7 545.51L1392.77 683.31" stroke="hsl(264.9, 68.9%, 60.7%)" stroke-width="1.5"></path>
        <path d="M1590.7 545.51L1399.58 359.83" stroke="hsl(264.9, 68.9%, 60.7%)" stroke-width="1.5"></path>
        <path d="M1590.7 545.51L1565.21 236.6" stroke="hsl(264.9, 68.9%, 60.7%)" stroke-width="1.5"></path>
        <path d="M1590.7 545.51L1305.82 386.31" stroke="hsl(264.9, 68.9%, 60.7%)" stroke-width="1.5"></path>
        <path d="M1590.7 545.51L1263.11 525.18" stroke="hsl(264.9, 68.9%, 60.7%)" stroke-width="1.5"></path>
        <circle r="25" cx="-63.48" cy="696.16" fill="url(&quot;#SvgjsRadialGradient1007&quot;)"></circle>
        <circle r="25" cx="48.69" cy="558.54" fill="url(&quot;#SvgjsRadialGradient1007&quot;)"></circle>
        <circle r="25" cx="379.75" cy="528.7" fill="url(&quot;#SvgjsRadialGradient1007&quot;)"></circle>
        <circle r="25" cx="405.83" cy="639.32" fill="url(&quot;#SvgjsRadialGradient1007&quot;)"></circle>
        <circle r="25" cx="676.64" cy="385.06" fill="url(&quot;#SvgjsRadialGradient1007&quot;)"></circle>
        <circle r="25" cx="682.28" cy="682.18" fill="url(&quot;#SvgjsRadialGradient1007&quot;)"></circle>
        <circle r="25" cx="856.25" cy="673.44" fill="url(&quot;#SvgjsRadialGradient1007&quot;)"></circle>
        <circle r="25" cx="1003.14" cy="225.87" fill="url(&quot;#SvgjsRadialGradient1007&quot;)"></circle>
        <circle r="25" cx="1162.05" cy="53.43" fill="url(&quot;#SvgjsRadialGradient1007&quot;)"></circle>
        <circle r="25" cx="1134.94" cy="188.54" fill="url(&quot;#SvgjsRadialGradient1007&quot;)"></circle>
        <circle r="5" cx="-102.34" cy="518.41" fill="#b492e4"></circle>
        <circle r="5" cx="72.93" cy="711.25" fill="#b492e4"></circle>
        <circle r="5" cx="224.65" cy="531.08" fill="#b492e4"></circle>
        <circle r="5" cx="236.6" cy="706.7" fill="#b492e4"></circle>
        <circle r="5" cx="533.55" cy="556.64" fill="#b492e4"></circle>
        <circle r="5" cx="548.42" cy="645.2" fill="#b492e4"></circle>
        <circle r="5" cx="690.3" cy="512.3" fill="#b492e4"></circle>
        <circle r="5" cx="816.89" cy="401.75" fill="#b492e4"></circle>
        <circle r="5" cx="982.92" cy="367.42" fill="#b492e4"></circle>
        <circle r="5" cx="991.07" cy="547.41" fill="#b492e4"></circle>
        <circle r="5" cx="1130.52" cy="339.47" fill="#b492e4"></circle>
        <circle r="5" cx="1128.51" cy="495.79" fill="#b492e4"></circle>
        <circle r="5" cx="1139.43" cy="710.61" fill="#b492e4"></circle>
        <circle r="5" cx="1305.58" cy="-43.92" fill="#b492e4"></circle>
        <circle r="5" cx="1293.51" cy="45.17" fill="#b492e4"></circle>
        <circle r="5" cx="1256.41" cy="246.73" fill="#b492e4"></circle>
        <circle r="5" cx="1305.82" cy="386.31" fill="#b492e4"></circle>
        <circle r="5" cx="1263.11" cy="525.18" fill="#b492e4"></circle>
        <circle r="5" cx="1242.5" cy="668.53" fill="#b492e4"></circle>
        <circle r="5" cx="1387.86" cy="-93.25" fill="#b492e4"></circle>
        <circle r="5" cx="1411.75" cy="92.29" fill="#b492e4"></circle>
        <circle r="5" cx="1433.29" cy="248.43" fill="#b492e4"></circle>
        <circle r="5" cx="1399.58" cy="359.83" fill="#b492e4"></circle>
        <circle r="5" cx="1438.39" cy="548.55" fill="#b492e4"></circle>
        <circle r="5" cx="1392.77" cy="683.31" fill="#b492e4"></circle>
        <circle r="5" cx="1564.39" cy="-102.53" fill="#b492e4"></circle>
        <circle r="5" cx="1570.12" cy="92.67" fill="#b492e4"></circle>
        <circle r="5" cx="1565.21" cy="236.6" fill="#b492e4"></circle>
        <circle r="5" cx="1590.7" cy="545.51" fill="#b492e4"></circle>
    </g>
    <defs>
        <mask id="SvgjsMask1006">
            <rect width="1440" height="560" fill="#ffffff"></rect>
        </mask>
        <radialGradient id="SvgjsRadialGradient1007">
            <stop stop-color="#ffffff" offset="0.1"></stop>
            <stop stop-color="rgba(105, 37, 201, 1)" offset="0.2"></stop>
            <stop stop-color="rgba(105, 37, 201, 0)" offset="1"></stop>
        </radialGradient>
    </defs>
</svg>